<svg width="20" height="20" viewBox="0 0 20 20" fill="none" xmlns="http://www.w3.org/2000/svg">
<path fill-rule="evenodd" clip-rule="evenodd" d="M9.15153 0.751496C9.62016 0.282867 10.38 0.282867 10.8486 0.751496L19.2486 9.1515C19.5918 9.49469 19.6945 10.0108 19.5087 10.4592C19.323 10.9077 18.8854 11.2 18.4001 11.2H17.2001V18.4C17.2001 19.0628 16.6628 19.6 16.0001 19.6H13.6001C12.9373 19.6 12.4001 19.0628 12.4001 18.4V14.8C12.4001 14.1373 11.8628 13.6 11.2001 13.6H8.80006C8.13732 13.6 7.60006 14.1373 7.60006 14.8V18.4C7.60006 19.0628 7.0628 19.6 6.40006 19.6H4.00006C3.33732 19.6 2.80006 19.0628 2.80006 18.4V11.2H1.60006C1.1147 11.2 0.677141 10.9077 0.491404 10.4592C0.305667 10.0108 0.408334 9.49469 0.751531 9.1515L9.15153 0.751496Z" fill="#0F172A"/>
</svg>
